# xmcd
#
# Track frame offsets: 
#        150
#        14980
#        28298
#        42498
#        55320
#        73185
#        90233
#        109396
#        120484
#        145467
#        159953
#        174342
#        188629
#        213750
#        237205
#        254020
#        268498
#        284689
#        297776
#        310591
#        323122
#
# Disc length: 4599 seconds
#
# Revision: 2
# Processed by: cddbd v1.5.2PL0 Copyright (c) Steve Scherf et al.
# Submitted via: ExactAudioCopyFreeDBPlugin 1.0
#
DISCID=4411f515
DTITLE=Al Green - Al Green Greatest Hits - The Best of Al Green - 42 C
DTITLE=lassic Tracks
DYEAR=2014
DGENRE=Soul
TTITLE0=Lets Stay Together
TTITLE1=Sha La La (Make Me Happy)
TTITLE2=L-O-V-E (Love)
TTITLE3=Tired of Being Alone
TTITLE4=Are You Lonely for Me Baby?
TTITLE5=I Can't Get Next to You
TTITLE6=Here I Am (Come and Take Me)
TTITLE7=The Letter
TTITLE8=Funny How Time Slips Away
TTITLE9=I'm Still in Love with You
TTITLE10=You Ought to Be with Me
TTITLE11=Livin' for You
TTITLE12=Let's Get Married
TTITLE13=Full of Fire
TTITLE14=Take Me to the River
TTITLE15=Let it Shine
TTITLE16=Have a Good Time
TTITLE17=So You're Leaving
TTITLE18=You Say It
TTITLE19=Oh Me, Oh My (Dreams in My Arms)
TTITLE20=Belle
EXTD=
EXTT0=
EXTT1=
EXTT2=
EXTT3=
EXTT4=
EXTT5=
EXTT6=
EXTT7=
EXTT8=
EXTT9=
EXTT10=
EXTT11=
EXTT12=
EXTT13=
EXTT14=
EXTT15=
EXTT16=
EXTT17=
EXTT18=
EXTT19=
EXTT20=
PLAYORDER=
